:version 1.10
:name ASF
:units
  mass 1
  length 1
  angle deg
:documentation
  ASF file generated by Kaydara
:root
  axis xyz
  order  tx ty tz rx ry rz
  position 0 0 0
  orientation 0 0 0
:bonedata
  begin
    id 1
    name SpineDummy
    direction 0.999998 -0.00179978 1.38929e-006
    length 3.60008
    axis 0 0 0 xyz
  end
  begin
    id 2
    name Spine
    direction 0.964365 0.262802 0.0305839
    length 8.13928
    axis 1.33928 -1.75354 15.2838 xyz
    dof rx ry rz
  end
  begin
    id 3
    name Spine1
    direction 0.811168 0.572065 0.12144
    length 7.14954
    axis 2.2224 -6.9761 35.2157 xyz
    dof rx ry rz
  end
  begin
    id 4
    name Neck
    direction 0 0 0
    length 0
    axis 2.2224 -6.9761 35.2157 xyz
    dof rx ry rz
  end
  begin
    id 5
    name HeadDummy
    direction 0.810939 0.572387 0.121455
    length 3.55534
    axis 2.2224 -6.9761 35.2157 xyz
  end
  begin
    id 6
    name Head
    direction 0.998226 -0.000232542 0.0595419
    length 7.35666
    axis -3.03688 -3.41352 -0.0133467 xyz
    dof rx ry rz
  end
  begin
    id 7
    name R_ClavicleDummy
    direction 0.531669 -0.194489 -0.824319
    length 2.49392
    axis 2.2224 -6.9761 35.2157 xyz
  end
  begin
    id 8
    name R_Clavicle
    direction -0.155119 0.0480802 -0.986725
    length 4.485
    axis -54.2764 80.6538 162.779 xyz
    dof rx ry rz
  end
  begin
    id 9
    name R_UpperArm
    direction -0.955567 0.200068 -0.216484
    length 10.1122
    axis -72.9943 12.5026 168.175 xyz
    dof rx ry rz
  end
  begin
    id 10
    name R_Forearm
    direction -0.61433 0.385743 0.688332
    length 9.39148
    axis -117.015 -43.4982 147.875 xyz
    dof rx ry rz
  end
  begin
    id 11
    name R_Hand
    direction -0.699429 0.0170333 0.714499
    length 3.66324
    axis -45.0303 -36.7097 175.478 xyz
    dof rx ry rz
  end
  begin
    id 12
    name L_ClavicleDummy
    direction 0.40287 -0.36502 0.839319
    length 2.49392
    axis 2.2224 -6.9761 35.2157 xyz
  end
  begin
    id 13
    name L_Clavicle
    direction -0.231271 -0.0726419 0.970174
    length 4.485
    axis 18.4357 -75.9711 -162.563 xyz
    dof rx ry rz
  end
  begin
    id 14
    name L_UpperArm
    direction -0.917494 0.144359 0.370629
    length 10.1122
    axis 56.0417 -21.7544 171.058 xyz
    dof rx ry rz
  end
  begin
    id 15
    name L_Forearm
    direction -0.496786 0.615074 -0.612281
    length 9.39148
    axis 89.8094 37.7546 128.927 xyz
    dof rx ry rz
  end
  begin
    id 16
    name L_Hand
    direction -0.409932 0.64962 -0.640274
    length 3.66324
    axis -0.424369 32.133 128.52 xyz
    dof rx ry rz
  end
  begin
    id 17
    name L_ThighDummy
    direction -1.84081e-006 1.87549e-006 1
    length 3.13049
    axis 0 0 0 xyz
  end
  begin
    id 18
    name L_Thigh
    direction -0.947739 0.307978 0.083308
    length 17.9961
    axis 173.219 -4.77873 161.998 xyz
    dof rx ry rz
  end
  begin
    id 19
    name L_Calf
    direction -0.728814 -0.684427 0.0197583
    length 13.3367
    axis 167.331 -1.13214 -136.799 xyz
    dof rx ry rz
  end
  begin
    id 20
    name L_Foot
    direction -0.9028 0.418719 0.0981191
    length 5.8674
    axis 163.436 11.5135 -155.37 xyz
    dof rx ry rz
  end
  begin
    id 21
    name L_Toe0
    direction -0.35341 0.886259 0.299411
    length 4.75286
    axis 169.316 -17.4222 111.74 xyz
    dof rx ry rz
  end
  begin
    id 22
    name R_ThighDummy
    direction 9.32778e-007 -8.82053e-007 -1
    length 3.13049
    axis 0 0 0 xyz
  end
  begin
    id 23
    name R_Thigh
    direction -0.925064 0.37528 -0.0585023
    length 17.9961
    axis -178.698 3.35385 157.919 xyz
    dof rx ry rz
  end
  begin
    id 24
    name R_Calf
    direction -0.68969 -0.718776 -0.0876886
    length 13.3367
    axis -160.504 5.03065 -133.817 xyz
    dof rx ry rz
  end
  begin
    id 25
    name R_Foot
    direction -0.857405 0.418858 -0.299022
    length 5.8674
    axis -161.328 4.38911 -154.413 xyz
    dof rx ry rz
  end
  begin
    id 26
    name R_Toe0
    direction -0.100745 0.952789 -0.286433
    length 4.75286
    axis 171.683 16.6445 96.0359 xyz
    dof rx ry rz
  end
:hierarchy
  begin
    root SpineDummy L_ThighDummy R_ThighDummy
    SpineDummy Spine
    Spine Spine1
    Spine1 Neck
    Neck HeadDummy R_ClavicleDummy L_ClavicleDummy
    HeadDummy Head
    R_ClavicleDummy R_Clavicle
    R_Clavicle R_UpperArm
    R_UpperArm R_Forearm
    R_Forearm R_Hand
    L_ClavicleDummy L_Clavicle
    L_Clavicle L_UpperArm
    L_UpperArm L_Forearm
    L_Forearm L_Hand
    L_ThighDummy L_Thigh
    L_Thigh L_Calf
    L_Calf L_Foot
    L_Foot L_Toe0
    R_ThighDummy R_Thigh
    R_Thigh R_Calf
    R_Calf R_Foot
    R_Foot R_Toe0
  end

:SAMPLES-PER-SECOND 30
:FULLY-SPECIFIED
:DEGREES
286
root  -0.870749 15.2163 23.5441 -56.8562 18.9772 27.907
Spine  -29.0064 -22.5445 25.5922
Spine1  -22.7138 41.787 -5.5749
Neck  3.97569e-016 0 -2.38542e-015
Head  2.69215 -4.0108 39.4848
R_Clavicle  0.990807 1.2883 4.90171
R_UpperArm  54.3773 -16.6933 20.7896
R_Forearm  -13.0771 8.96871 -8.49022
R_Hand  -10.7987 37.7555 -44.8977
L_Clavicle  0.101606 8.13433 -4.65382
L_UpperArm  -29.3077 -22.4611 -23.5567
L_Forearm  -0.223768 23.3636 29.0732
L_Hand  -0.00479365 -6.96266 0.949604
L_Thigh  -19.0845 -6.62418 12.1116
L_Calf  -19.2555 7.44885 -72.1985
L_Foot  2.07934 -6.2617 24.698
L_Toe0  0.615288 0.0324875 -6.24291
R_Thigh  -3.99778 13.1974 17.6145
R_Calf  7.51767 -10.7212 -35.8683
R_Foot  0.0587125 2.74135 8.15978
R_Toe0  -3.16462 -0.125486 -16.0097
287
root  -0.260659 16.5082 24.1301 -69.6284 24.0735 28.5586
Spine  -27.2964 -23.2061 25.3018
Spine1  -21.2089 41.731 -5.67165
Neck  3.97569e-016 0 -2.38542e-015
Head  4.99411 -3.75313 35.0237
R_Clavicle  1.03026 2.60071 4.9292
R_UpperArm  52.7886 -8.92839 15.7381
R_Forearm  -7.61507 7.69747 -8.24419
R_Hand  -12.4537 37.3721 -49.185
L_Clavicle  0.159869 7.47171 -4.8352
L_UpperArm  -19.1826 -29.3756 -27.6924
L_Forearm  -10.9059 35.7653 45.296
L_Hand  0.170564 -2.61455 6.05351
L_Thigh  -9.89918 2.4335 22.7189
L_Calf  -25.2087 6.47493 -55.9178
L_Foot  5.76985 5.72812 16.314
L_Toe0  0.505156 0.034446 -6.1361
R_Thigh  -7.27243 7.20578 12.9469
R_Calf  6.85785 -13.5557 -48.2115
R_Foot  -0.986286 2.60515 18.2073
R_Toe0  -11.8778 2.04356 -7.13157
288
root  0.481527 17.8397 24.2961 -81.4054 29.5742 30.717
Spine  -24.8956 -23.0081 24.162
Spine1  -19.9956 41.0976 -7.12854
Neck  3.97569e-016 0 -2.38542e-015
Head  7.79891 -3.75263 33.0694
R_Clavicle  0.771775 5.96142 3.523
R_UpperArm  52.2287 -5.28586 12.0845
R_Forearm  3.65549 8.3363 -9.09747
R_Hand  -14.0407 39.6301 -51.443
L_Clavicle  0.254943 8.11582 -6.83405
L_UpperArm  -15.5204 -34.5456 -26.659
L_Forearm  -17.1811 42.0214 52.4585
L_Hand  0.500306 -0.0701433 8.2356
L_Thigh  3.79678 9.92422 27.6055
L_Calf  -15.7386 5.01775 -39.9765
L_Foot  6.90079 10.0509 14.7502
L_Toe0  0.505156 0.034446 -6.1361
R_Thigh  -9.03416 -1.847 9.89451
R_Calf  8.33446 -14.8733 -55.2336
R_Foot  -1.56162 2.57515 23.6252
R_Toe0  -19.9181 6.60687 1.9011
289
root  0.822914 18.8333 24.2186 -91.8175 35.2592 33.3651
Spine  -22.9189 -22.9693 23.3843
Spine1  -18.8698 41.5315 -8.07746
Neck  3.97569e-016 0 -2.38542e-015
Head  11.856 -3.83628 31.1083
R_Clavicle  0.534371 8.26988 2.59249
R_UpperArm  49.7431 -2.26599 8.06302
R_Forearm  7.99118 8.86324 -10.4977
R_Hand  -16.2204 41.9996 -54.6675
L_Clavicle  -0.00936993 10.8939 -6.51907
L_UpperArm  -21.9336 -34.3359 -16.8641
L_Forearm  -30.6606 33.385 36.6897
L_Hand  -0.621891 -10.3356 3.83258
L_Thigh  14.9865 18.8256 28.513
L_Calf  -9.15045 3.41594 -26.147
L_Foot  7.57195 8.56982 18.8062
L_Toe0  0.505156 0.034446 -6.1361
R_Thigh  -9.06255 -12.8405 8.6785
R_Calf  16.2426 -15.2023 -57.2067
R_Foot  -1.04583 3.67191 24.2207
R_Toe0  -16.8871 5.76433 -1.86766
290
root  1.0406 19.3593 24.0783 -100.91 41.2248 35.1586
Spine  -20.2536 -23.7834 19.8487
Spine1  -15.6845 40.4909 -5.19942
Neck  3.97569e-016 0 -2.38542e-015
Head  13.6843 -2.51993 28.4487
R_Clavicle  0.384648 6.05293 2.00761
R_UpperArm  47.4161 1.57651 6.3427
R_Forearm  8.47372 9.2357 -11.725
R_Hand  -18.2472 39.5023 -60.9873
L_Clavicle  -0.267995 13.2009 -3.99512
L_UpperArm  -35.6526 -25.381 -0.972089
L_Forearm  -43.6329 6.56154 5.27556
L_Hand  4.04736 -36.8702 -12.4363
L_Thigh  19.8614 27.6845 28.3961
L_Calf  -11.7092 1.70316 -13.0343
L_Foot  7.40322 10.2768 16.1578
L_Toe0  0.505156 0.034446 -6.1361
R_Thigh  -9.85395 -25.0039 10.0002
R_Calf  24.2995 -14.3801 -52.5514
R_Foot  0.0145267 5.23211 21.4101
R_Toe0  -0.468351 -0.796643 -18.6806
